<mxfile host="app.diagrams.net" modified="2022-03-01T14:01:26.453Z" agent="5.0 (Windows NT 10.0; Win64; x64) AppleWebKit/537.36 (KHTML, like Gecko) Chrome/98.0.4758.82 Safari/537.36" etag="DNZLRhlus91UC7RMbabq" version="16.5.6" type="github">
  <diagram id="HYq7QWkHzSIJHW9ksOHc" name="Page-1">
    <mxGraphModel dx="1209" dy="749" grid="1" gridSize="10" guides="1" tooltips="1" connect="1" arrows="1" fold="1" page="1" pageScale="1" pageWidth="827" pageHeight="1169" math="0" shadow="0">
      <root>
        <mxCell id="0" />
        <mxCell id="1" parent="0" />
        <mxCell id="NJLCNYqio_wCSFZ50Wys-1" value="" style="edgeStyle=orthogonalEdgeStyle;rounded=0;orthogonalLoop=1;jettySize=auto;html=1;" edge="1" parent="1" source="NJLCNYqio_wCSFZ50Wys-2" target="NJLCNYqio_wCSFZ50Wys-4">
          <mxGeometry relative="1" as="geometry" />
        </mxCell>
        <mxCell id="NJLCNYqio_wCSFZ50Wys-2" value="&lt;font style=&quot;font-size: 18px&quot;&gt;A&lt;/font&gt;" style="shape=umlActor;verticalLabelPosition=bottom;verticalAlign=top;html=1;outlineConnect=0;" vertex="1" parent="1">
          <mxGeometry x="400" y="770" width="30" height="60" as="geometry" />
        </mxCell>
        <mxCell id="NJLCNYqio_wCSFZ50Wys-3" value="&lt;font style=&quot;font-size: 18px&quot;&gt;a&lt;/font&gt;" style="ellipse;whiteSpace=wrap;html=1;" vertex="1" parent="1">
          <mxGeometry x="200" y="650" width="120" height="80" as="geometry" />
        </mxCell>
        <mxCell id="NJLCNYqio_wCSFZ50Wys-4" value="&lt;font style=&quot;font-size: 18px&quot;&gt;b&lt;/font&gt;" style="ellipse;whiteSpace=wrap;html=1;" vertex="1" parent="1">
          <mxGeometry x="200" y="760" width="120" height="80" as="geometry" />
        </mxCell>
        <mxCell id="NJLCNYqio_wCSFZ50Wys-5" value="&lt;font style=&quot;font-size: 18px&quot;&gt;c&lt;/font&gt;" style="ellipse;whiteSpace=wrap;html=1;" vertex="1" parent="1">
          <mxGeometry x="200" y="860" width="120" height="80" as="geometry" />
        </mxCell>
        <mxCell id="NJLCNYqio_wCSFZ50Wys-6" value="&lt;font style=&quot;font-size: 14px&quot;&gt;待推荐物品库&lt;/font&gt;" style="shape=cylinder3;whiteSpace=wrap;html=1;boundedLbl=1;backgroundOutline=1;size=15;" vertex="1" parent="1">
          <mxGeometry x="580" y="745" width="110" height="110" as="geometry" />
        </mxCell>
        <mxCell id="NJLCNYqio_wCSFZ50Wys-7" value="" style="endArrow=classic;html=1;rounded=0;" edge="1" parent="1" source="NJLCNYqio_wCSFZ50Wys-2" target="NJLCNYqio_wCSFZ50Wys-3">
          <mxGeometry width="50" height="50" relative="1" as="geometry">
            <mxPoint x="390" y="710" as="sourcePoint" />
            <mxPoint x="440" y="660" as="targetPoint" />
          </mxGeometry>
        </mxCell>
        <mxCell id="NJLCNYqio_wCSFZ50Wys-8" value="" style="endArrow=classic;html=1;rounded=0;" edge="1" parent="1" source="NJLCNYqio_wCSFZ50Wys-2" target="NJLCNYqio_wCSFZ50Wys-5">
          <mxGeometry width="50" height="50" relative="1" as="geometry">
            <mxPoint x="390" y="710" as="sourcePoint" />
            <mxPoint x="440" y="660" as="targetPoint" />
          </mxGeometry>
        </mxCell>
        <mxCell id="NJLCNYqio_wCSFZ50Wys-9" value="" style="endArrow=classic;html=1;rounded=0;" edge="1" parent="1" source="NJLCNYqio_wCSFZ50Wys-6">
          <mxGeometry width="50" height="50" relative="1" as="geometry">
            <mxPoint x="390" y="710" as="sourcePoint" />
            <mxPoint x="450" y="800" as="targetPoint" />
          </mxGeometry>
        </mxCell>
        <mxCell id="NJLCNYqio_wCSFZ50Wys-10" value="&lt;font style=&quot;font-size: 18px&quot;&gt;推荐相似物品&lt;/font&gt;" style="text;html=1;strokeColor=none;fillColor=none;align=center;verticalAlign=middle;whiteSpace=wrap;rounded=0;" vertex="1" parent="1">
          <mxGeometry x="450" y="830" width="120" height="30" as="geometry" />
        </mxCell>
      </root>
    </mxGraphModel>
  </diagram>
</mxfile>
